<?xml version="1.0" encoding="UTF-8"?>
<svg id="Layer_1" xmlns="http://www.w3.org/2000/svg" version="1.1" viewBox="140.7 144.1 79.7 65.6">
  <!-- Generator: Adobe Illustrator 30.2.1, SVG Export Plug-In . SVG Version: 2.1.1 Build 1)  -->
  <defs>
    <style>
      .st0 {
        isolation: isolate;
      }

      .st1 {
        fill: none;
        stroke: #ffffff;
        stroke-miterlimit: 10;
        stroke-width: .25px;
      }

      .st2 {
        fill: #ffffff;
      }
    </style>
  </defs>
  <g class="st0">
    <g class="st0">
      <path class="st2" d="M180.88,196.27c-.06.15-.13.3-.22.44-.05.11-.15.19-.26.22-.11.04-.23.03-.34-.03-.13-.07-.24-.19-.38-.14-.27.11-.39-.15-.64-.2-.25-.05-.32.2-.55.2-.8.03-1.6.02-2.39-.05-.39-.07-.78-.12-1.17-.14-.11-.01-.27-.06-.35,0-.58.44-.86-.09-1.23-.35-.15-.11-.08-.33-.25-.43-.55-.34-.58-.86-.58-1.45.05-.74-.21-1.47-.73-2.01-.25-.2-.36-.52-.32-.84.02-.46-.05-.92-.21-1.35-.17-.76-.61-1.42-1.25-1.87-.14-.1-.33-.1-.47,0-.05.03-.08.09-.13.12-.15.11-.23.4-.47.34-.19-.04-.27-.23-.35-.44-.04-.13-.14-.23-.27-.27-.13-.04-.27-.01-.37.08-.23.18-.54.08-.75.36-.28.36-.47.33-.84.06-.11-.09-.22-.2-.32-.31-.22-.23-.45-.27-.67-.02-.12.13-.3.16-.43.26-.18.15-.43.16-.62.02-.39-.29-.92-.33-1.35-.1-.3.13-.65.07-.89-.14-.34-.27-.83-.27-1.17,0-.23.23-.6.25-.86.05-.15-.12-.34-.05-.51-.05h-2.13c-.42,0-.83.02-1.25,0-.36-.09-.72-.15-1.08-.19-.47.04-.94.16-1.37.36-.14.06-.31.14-.33.25-.09.47-.51.74-.65,1.17-.02.08-.1.12-.13.22-.09.31.29.6.15.79-.15.19-.45.25-.54.57-.13.56-.35,1.1-.65,1.6-.17.23.14.47.21.7.03.12.21.21.1.37-.07.09-.17.22-.25.22-.77-.04-.67.64-.74,1.02-.09.54-.54.8-.77,1.2-.23.26-.59.38-.93.29-.26-.07-.54.05-.66.3-.08.15-.22.24-.39.25s-.32-.07-.41-.21c-.13-.17-.16-.52-.39-.5-.23.02-.46.25-.66.3-.3.06-.38.43-.64.38-.27-.05-.39-.33-.59-.51-.12-.12-.28-.19-.46-.19s-.34.07-.46.19c-.07.06-.12.13-.19.19-.26.22-.43.23-.67.01-.32-.29-.46-.72-.81-1.01-.08-.06-.04-.29.08-.47.36-.52.53-1.14.85-1.68.13-.22-.03-.56.29-.68-.2-.92.54-1.49.82-2.24.06-.15.18-.31.22-.44.13-.45-.17-.99.33-1.38.4-.31.33-.89.6-1.25.17-.22.05-.47.22-.63.21-.2.11-.45.1-.67-.02-.24.09-.46.28-.61.29-.24.45-.59.45-.97,0-.08.01-.17.06-.23.29-.37.39-.85.29-1.3-.02-.29.1-.58.33-.76.32-.29.71-.56.57-1.09.32-.51.44-1.12.35-1.72,0-.19.07-.24.25-.35.37-.24.77-.57.65-1.13.3-.45.43-1,.34-1.54,0-.18.08-.34.22-.44.36-.36.61-.81.72-1.31.2-.5.3-1.02.31-1.55-.01-.18.13-.26.23-.35.56-.5.86-1.22.82-1.97,0-.51.2-1.01.55-1.38.44-.51.69-1.16.68-1.83.05-.5.25-.98.58-1.37.11-.17.32-.23.34-.48.03-.44.38-.81.34-1.27-.04-.4.1-.8.38-1.09.21-.26.34-.58.39-.91.13-.56.57-1.03.5-1.66,0-.09.11-.19.17-.28.47-.8.84-1.67,1.08-2.57.17-.61.32-.68.99-.68h.39c.39.06.78,0,1.13-.18.35.31.78.17,1.17.17.43.03.86-.01,1.27-.13.39-.11.8-.07,1.17.1.49.13,1,.14,1.49.03.48.03.97.09,1.44.2.21,0,.43.2.33.41-.13.27.31.43.07.68-.11.12.04.13.1.13.19-.02.29.16.45.21.3.09.34.35.11.58-.2.17-.23.47-.07.68.13.21.22.45.26.7.05.42.4.68.7.95.26.2.39.51.36.84-.02.73.16,1.46.51,2.1.19.28.32.58.39.91.07.29.28.53.57.62.14.03.26.12.32.25.06.13.04.29-.04.41-.52.58-.06.99.18,1.43.07.13.23.19.19.37-.09.39.22.57.43.8.17.18.46.32.13.63-.09.08-.02.29.07.47.42.8.75,1.65,1,2.52.05.21.13.59.48.65.41.07.42.37.38.66-.12.77.35,1.41.43,2.14.01.14.07.27.17.37.19.18.3.42.32.67.06.35.13.8.7.8.27,0,.31.21.22.55-.09.33-.09.68,0,1.01.14.3.24.62.29.95,0,.13.14.24.19.36.09.21.49.17.51.49,0,.23-.02.47,0,.7.02.23.23.34.38.47.18.12.23.36.11.54-.17.21-.03.32,0,.51.07.48.42.86.47,1.32.03.31.34.41.56.54.45.27.49.27.31.74-.09.19-.1.4-.04.59.35.66.37,1.47.93,2.01.17.16.12.32.12.49-.02.3.02.56.38.62.14.02.19.13.27.2.3.27.32.28.05.61-.18.16-.21.42-.07.61.39.64.51,1.44,1.2,1.9.13.08.2.2.09.36-.23.34-.21.79.06,1.11.22.29.1.5,0,.69ZM144.01,196.32c-.08-.02-.16-.02-.23,0-.09.02-.09.09,0,.11.07.02.13.02.2.02.12-.06.12-.11.04-.13ZM148.97,190.24s.06-.04.05-.06c-.01-.04-.03-.08-.05-.12l-.07.06.06.11h0ZM150.92,183.13s.06-.04.06-.06c-.01-.04-.03-.08-.06-.12l-.06.06.06.11ZM150.98,183.73l-.06-.06s-.04.08-.06.12c0,.01.04.04.06.06l.06-.12ZM154.15,185.41c.11,0,.08-.14.06-.23-.02-.09.06-.25-.12-.23-.1.02-.06.14-.06.23,0,.09-.06.25.11.23h0ZM154.12,173.35s-.06.04-.06.06c.01.04.03.08.06.12l.06-.06-.06-.11h0ZM154.89,176.79l-.06-.06s-.04.08-.05.12c0,.01.04.04.05.06l.06-.12ZM167.16,181.52c.54-.06.54-.13.59-.64.01-.27-.13-.52-.36-.65-.19-.15-.29-.36-.17-.53.11-.18,0-.26,0-.4-.02-.64-.69-1.06-.56-1.73,0-.04-.06-.1-.1-.13-.49-.34-.73-.94-.62-1.53-.04-.27-.13-.53-.26-.77-.18-.49-.43-.98-.57-1.45-.11-.47-.34-.89-.68-1.23-.21-.19-.38-.34-.09-.64.1-.19.08-.41-.05-.58-.18-.28-.3-.59-.36-.91-.07-.33-.25-.63-.51-.85-.25-.17-.36-.47-.3-.77.06-.43,0-.86-.2-1.25-.21-.4-.08-.91-.45-1.24-.16-.12-.26-.32-.26-.52,0-.2-.17-.35-.41-.35-.21-.03-.41.11-.45.32-.08.53-.46.97-.51,1.47,0,.57-.2,1.12-.56,1.56-.04.05,0,.17,0,.26-.03.29.02.57.16.82.13.18-.02.34-.27.38-.14.02-.39-.07-.39.08,0,.21-.23.27-.21.45.02.34-.1.67-.32.93-.22.29-.22.68,0,.96.09.11.13.25.13.39,0,.21.01.39-.3.39s-.42.3-.6.54-.15.52-.3.77c-.3.5-.26.53.02,1.14.21.46.16.59-.31.74-.33.08-.59.35-.66.69-.06.3-.17.58-.32.84-.26.38-.26.47.03.89.21.29.09.4-.09.57-.06.06-.11.16-.19.18-.58.18-.67.63-.65,1.15.04.15-.09.36.09.48.25.22.53.4.85.52.4.13.82.13,1.22,0,.38-.19.83-.16,1.17.09.19.11.42.11.62.02.43-.12.86-.5,1.33-.08.49-.1,1.06.24,1.49-.27.17-.2.29-.02.43.08.65.49.76.48,1.4.04.39-.27.63-.33.89-.02.2.25.51.04.7.28.2-.02.39-.11.53-.25.11-.13.27-.21.44-.22h0ZM156.02,178.04s.03.08.06.12l.06-.06-.06-.11s-.06.04-.06.06ZM156.19,162.76s.05.07.07.1h.08s-.03-.09-.05-.14c-.03-.05-.08-.03-.11.04ZM156.5,163.26c.03-.22.04-.36-.08-.39-.16-.04-.08.11-.08.16,0,.11-.08.28.1.34.02-.04.04-.08.05-.12h0ZM156.52,163.75s-.03-.14-.06-.14c-.11-.02-.13.06-.11.15,0,.05.03.14.06.14.1.02.12-.06.11-.15ZM156.64,177.3s-.08.03-.12.06c.02.02.04.06.06.06.04-.01.08-.03.12-.06-.02-.02-.04-.06-.06-.06ZM156.7,183.76s-.04-.06-.06-.06c-.04.01-.08.03-.12.06l.07.06.11-.06ZM156.82,165.58c-.23-.02-.07.2-.14.31.07.1-.08.32.12.32.14-.04.24-.16.25-.31,0-.15-.09-.27-.23-.32h0ZM156.97,166.78s-.06.08-.06.11c.05.1.15.06.23.06.03,0,.05-.07.07-.11-.06-.1-.15-.07-.24-.06ZM157.23,162.77l.11.06.06-.06s-.08-.04-.12-.06c-.01,0-.04.04-.06.06ZM157.38,183.25l-.06-.11s-.06.04-.06.06c.01.04.03.08.06.12l.06-.06ZM157.58,171.13c.07.04.15.07.23.08.04,0,.09-.05.13-.08l-.2-.1-.17.1ZM158.57,188.11s.06-.04.06-.05c-.01-.04-.03-.08-.06-.12-.02.02-.06.04-.06.06.01.04.03.08.06.12h0ZM159.28,160.73s-.06.04-.06.06c.02.04.03.08.06.12l.06-.06-.06-.11h0ZM161.09,164.85s-.08.03-.12.05l.06.06.12-.06s-.04-.06-.06-.06h0ZM162.19,185.74l-.06-.11s-.06.04-.06.06c.01.04.03.08.06.12l.06-.06ZM162.33,165.03s-.08.03-.12.05c.02.02.04.06.06.06.04-.01.08-.03.12-.06-.02-.02-.04-.05-.06-.05h0ZM163.01,163.57s-.06.04-.06.06c.01.04.03.08.06.12l.06-.06-.06-.12h0ZM164.11,169.12s-.08.03-.12.05c.02.02.04.06.06.06.04-.01.08-.03.12-.06-.02-.02-.04-.06-.06-.06h0ZM164.08,185.09s.06-.04.05-.04c-.01-.04-.03-.08-.05-.12-.02.02-.06.04-.06.06.01.04.03.08.06.12h0ZM164.26,164.29s-.04.08-.06.12c0,.01.03.04.06.06l.06-.11-.06-.06h0ZM164.82,184.87c.1,0,.07-.13.05-.22s.06-.25-.12-.23c-.1.02-.07.14-.06.23,0,.09-.06.25.11.23h0ZM164.84,186.23l-.06-.06s-.04.08-.06.12c0,.01.04.04.06.06l.06-.11ZM165.45,170.63s.03.04.05.06l.07-.12-.07-.06s-.04.08-.05.12ZM166.01,165.56c-.1.04-.06.15-.06.24,0,.03.07.05.1.07.11-.06.06-.15.06-.23,0-.02-.08-.06-.11-.06h0ZM166.75,182.96s.06-.04.05-.04c-.01-.04-.03-.08-.06-.12-.02.02-.06.04-.06.06.01.04.03.08.06.12h0ZM166.69,173.6s.03.08.06.12c.02-.02.06-.04.06-.06-.01-.04-.03-.08-.06-.12-.02,0-.06.03-.06.06ZM166.75,177.09s-.06.04-.06.07c.01.04.03.08.06.12l.06-.06-.06-.12h0ZM167.22,174.36s.04.04.06.06l.06-.11-.06-.06s-.04.08-.06.12ZM168.07,187.13c0-.08.04-.17-.07-.23-.03.02-.11.04-.11.07,0,.09-.04.19.06.23.02.01.11-.04.11-.06h0ZM167.96,179.25s-.04.04-.07.07l.11.06.06-.06s-.08-.04-.12-.06h0ZM167.89,182.52s.04.06.06.06c.04-.01.08-.03.12-.06l-.06-.06-.11.06ZM167.99,178.51s-.06.04-.07.07c.01.04.03.08.06.12l.06-.06-.06-.11h0ZM168.04,180.76s-.03-.07-.06-.1c-.02.02-.06.04-.06.06.01.04.03.08.06.12.02-.02.06-.04.06-.06h0ZM168.71,173.17s.07-.1.07-.13c.03-.21-.17-.27-.26-.4-.03.05-.08.09-.08.14-.03.21.17.27.27.39h0ZM169.31,178.39c.03-.09,0-.18-.08-.23-.03.05-.08.09-.08.14.02.08.05.15.08.22l.08-.12ZM169.29,180.05l-.06-.11s-.06.04-.06.06c.01.04.03.08.06.12l.06-.06ZM169.47,170.4l-.06-.06s-.04.08-.06.12c0,.01.04.04.06.06l.06-.11ZM170.48,178.68s.06-.04.04-.05c-.01-.04-.03-.08-.05-.12l-.06.06.06.11h0ZM173.55,177.92c.02-.11-.06-.13-.15-.11-.05,0-.14.03-.14.06-.02.12.06.12.15.12.06-.03.14-.04.14-.06ZM178.92,190.61s-.09.03-.14.05c-.05.03-.04.08.03.11.02,0,.07-.05.1-.08v-.08Z"/>
      <path class="st2" d="M216.36,196.79c-.36.12-.73.21-1.11.26-.2.06-.41,0-.54-.16-.23-.27-.64-.31-.92-.09-.63.48-1.19.02-1.78-.02-.09,0-.2-.09-.23-.06-.41.33-.87.13-1.32.16-.45.03-.92,0-1.38,0-.11,0-.26,0-.32-.06-.41-.35-.77-.75-1.08-1.19-.19-.31-.4-.59-.64-.86-.14-.13-.27-.29-.38-.45-.18-.36-.26-.78-.82-.78-.23,0-.3-.3-.15-.63.12-.25.15-.32-.17-.37-.37-.06-.62-.32-.6-.59-.04-.61-.31-1.18-.75-1.59-.68-.86-1.3-1.76-1.87-2.69-.32-.61-.74-1.17-1.22-1.67-.4-.39-.77-.82-1.1-1.27-.11-.18-.19-.38-.25-.58-.05-.12-.11-.34-.18-.34-.45-.07-.6-.29-.52-.73.04-.23-.15-.32-.34-.41-.14-.06-.33-.22-.33-.32,0-.48-.2-.93-.55-1.25-.4-.63-.85-1.23-1.35-1.79-.33-.3-.32-.31-.77-.1l-.36.17-.36.17c-.35.17-.15.72-.5.82-.3.06-.57.22-.77.45-.08.1-.11.22-.22.34-.11.11-.24.28-.37.29-.26,0-.48.19-.51.45-.02.12-.18.22-.29.31-.39.29-.74.63-1.04,1.03-.32.37-.67.72-1.03,1.05-.11.1-.21.2-.3.31-.26.28-.28.71-.03,1.01q.34.52-.06,1.07s-.03-.09-.05-.13c0-.01-.07.03-.11.03l.08.1h.08c-.06.42,0,.84.17,1.23.05.11.05.23,0,.34-.26.59-.26,1.26,0,1.86.02.13-.01.27-.09.39-.21.42-.46.84-.08,1.3.07.79.03,1.59-.13,2.37-.13.36.12.74-.17,1.06-.01.01.01.09.04.12.54.47.19.9-.1,1.3-.14.2-.34.44-.6.09-.84-.08-1.68,0-2.49.25-.17.09-.37.1-.54.02-.36-.21-.78-.31-1.2-.28-.34-.02-.4.11-.37.39.01.12.07.31-.17.31-.16,0-.34.07-.36-.22,0-.11-.22-.25-.36-.29-.57-.15-1.07-.35-1.02-1.09-.02-.16-.09-.31-.21-.42-.19-.21-.12-.37-.04-.6.08-.24.1-.5.07-.75-.02-.25.36-.43.03-.75-.15-.14-.02-.55-.02-.84.05-.29.04-.58-.02-.86-.22-.45-.16-.99.16-1.37.16-.25.12-.58-.08-.79-.27-.26-.34-.67-.16-1,.17-.45.17-.94,0-1.39-.09-.2-.07-.43.06-.61.16-.32.43-.69.04-1.05-.05-.51,0-1.02.11-1.51.1-.21.12-.44.05-.66-.17-.77-.23-1.57-.16-2.36.23-.49.29-1.04.14-1.57-.1-.4-.15-.82-.14-1.23.04-.58.12-1.16.16-1.75.08-.26-.02-.54-.23-.7-.19-.13-.16-.33-.04-.52.26-.39-.06-.89.26-1.28.05-.06-.08-.3-.16-.43-.23-.34.44-.66,0-.98.02-.36-.04-.72-.16-1.06-.06-.19-.03-.39.07-.56.52-.54.27-1.03-.09-1.48-.19-.24-.18-.35.01-.56.23-.45.26-.98.07-1.45-.15-.28-.09-.62.13-.84.11-.13.15-.3.12-.47-.22-.68-.22-1.42,0-2.1.04-.14.04-.29,0-.43-.19-.83-.25-1.68-.17-2.53.2-.44.25-.93.15-1.4-.02-.26-.14-.51-.17-.79-.07-.5.22-.97.7-1.13.47-.19.95-.63,1.51-.19.45.03.9-.01,1.34-.12.32-.11.67-.1.98.04.45.17.95.16,1.4-.02.42-.16.9-.07,1.23.23.23.13.36.39.31.65-.02.14.02.29,0,.43-.09.4.09.82.43,1.04.09.06.23.15.23.23.02.14-.04.43-.08.43-.47.05-.37.44-.47.7-.17.45-.17.45.23.71.4.26.4.26.12.66-.13.14-.23.3-.28.49-.04.36-.09.75.31,1,.23.15.27.31.04.54-.64.66-.62.66-.19,1.46.1.18.29.35.03.65-.3.39-.36.91-.14,1.35.16.32.14.71-.07,1-.09.21-.19.32,0,.57.16.21-.11.63.2.86-.12.27-.22.54-.31.83-.07.19-.08.39-.03.58.16.42.21.87.15,1.32.06.45,0,.9-.14,1.32-.13.27.14.56.34.79.06.06.14.08.22.07.17-.08.41-.15.47-.29.3-.73,1.05-.99,1.56-1.49.49-.59,1.04-1.11,1.66-1.56.32-.18.48-.61.75-.88,1.48-1.49,2.97-2.98,4.47-4.47.06-.06.14-.08.22-.06v.02c.03.09.06.17.1.25l.08-.15-.1-.17c.24-.31.5-.61.78-.88l1.91-1.9s-.01-.07,0-.08c.98-1.04,1.95-2.08,2.94-3.11.36-.37.52-.93,1.09-1.09.19-.7.79-.97,1.32-1.33.07-.05.13-.11.18-.18.24-.36.62-.4,1-.51.36-.14.76-.14,1.12.01.13.05.27.06.41.05h2.08c.06,0,.13.03.17,0,.5-.25,1.09-.19,1.53.15.32.16.58-.12.82-.26.5-.3.62-.32,1.01.03.13.14.3.24.49.29.19.04.35.18.4.38s-.01.39-.17.52c-.22.21-.46.39-.72.55-.26.18-.33.52-.65.69-.3.16-.53.43-.62.76-.57.42-1.1.89-1.6,1.39-.17.13-.35.2-.42.43-.06.13-.16.24-.29.31-.75.43-1.12,1.23-1.76,1.77-.49.42-.98.81-1.45,1.29s-.9,1.01-1.34,1.52c.06.34-.31.24-.44.4-.35.45-.84.77-1.21,1.21-.42.41-.86.8-1.32,1.17-.16.15-.23.37-.38.53-.15.16-.08.25,0,.43.18.39.07.51-.36.47-.08-.01-.16-.03-.23-.05-.41-.11-.64.08-.56.47.12.61.12.62-.42.47-.31-.1-.46,0-.44.37.02.42,0,.77-.51.92-.1.02-.19.1-.2.21s.03.21.12.26c.04.03.03.11.06.15.47.47.63,1.16,1.15,1.61.44.4.83.85,1.17,1.33.13.18.07.51.21.68.14.17.45.18.62.33.1.08.07.31.14.45.16.31.12.8.67.8.06,0,.18.13.18.2,0,.5.21.98.56,1.33.22.43.47.85.75,1.24.21.22.35.5.56.72.29.33.54.69.75,1.08.25.49.57.95.96,1.34.11.1.15.28.25.41.23.29.33.67.77.81.32.1.5.43.43.75-.03.18.09.19.23.26.37.17.8.33.64.91-.08.31.23.44.41.6.11.09.28.07.3.31,0,.1.09.16.03.32-.05.12.14.38.28.52.24.26.43.57.56.9.13.24.29.46.47.67.16.22.33.44.49.66.29.4.6.82.86,1.21s.49.79.75,1.17c.11.17.24.31.36.47.12.15.23.3.33.47.33.61.26.84-.36,1.1ZM182.66,174.61l-.11-.4s-.11.1-.11.15c0,.11.02.21.05.31l.16-.06ZM182.53,158.24s-.04.08-.05.12c0,.01.04.04.05.06l.06-.11-.06-.06h0ZM183.83,178.6s-.08-.04-.12-.05c-.01,0-.04.04-.06.05l.11.06.06-.06ZM183.75,174.17s-.05.08-.06.13c0,.01.04.04.05.06l.06-.11-.06-.06h0ZM184.26,173.77l-.19-.26c-.09.1-.17.21-.23.33-.01.03.08.11.12.16l.3-.24ZM184.23,177.43s.11-.04.11-.06c0-.08-.01-.17-.03-.25-.06.04-.13.07-.13.09,0,.08.03.16.05.23h0ZM184.26,168.64s-.06.04-.05.06c.01.04.03.08.05.12.02-.02.05-.04.05-.06-.01-.04-.03-.08-.05-.12h0ZM184.26,169.32s-.06.04-.05.07c.01.04.03.08.05.12l.06-.06-.06-.11h0ZM184.26,169.84s-.06.04-.05.07c.01.04.03.08.05.11.02-.02.05-.04.05-.06-.01-.04-.03-.08-.05-.12h0ZM184.41,187.3s.08-.02.11-.04l-.06-.06-.11.06s.04.05.06.05h0ZM185.08,171.75c-.07.02-.14.05-.21.09.04.03.09.08.13.08.08-.01.16-.03.23-.07-.07-.04-.11-.1-.15-.1h0ZM184.96,184.21s.06-.04.05-.04c-.01-.04-.03-.08-.05-.12l-.06.06.06.11h0ZM185.5,187.99s.07-.11.05-.13c-.04-.07-.09-.14-.15-.21l-.19.12.29.23h0ZM185.39,180.5s.04.06.06.06c.04-.01.08-.03.12-.06l-.06-.06-.11.06ZM185.67,196.13c.02-.11.04-.21.05-.3.01-.08.01-.17,0-.25,0-.03-.1-.06-.11-.07s-.06.04-.06.06v.34l.11.23h0ZM185.88,157.62l-.06-.06s-.04.07-.05.11c0,.01.03.04.05.06l.06-.11ZM186.17,182.83c.04-.07.06-.14.08-.21,0-.04-.05-.09-.08-.13l-.1.19.1.15h0ZM186.17,171.75s-.06.04-.06.07c.01.04.03.08.06.12.02-.02.05-.04.05-.06-.01-.04-.03-.08-.05-.12h0ZM186.69,166.21s-.06.04-.05.06c.01.04.03.08.05.12.02-.02.05-.04.05-.06-.01-.04-.03-.08-.05-.11h0ZM186.75,169.27l-.06-.11s-.05.04-.05.06c.01.04.03.08.05.12l.06-.06ZM186.89,177.95s.04-.04.06-.05l-.11-.06-.06.06s.08.04.12.05h0ZM187.35,177.43s.08-.03.12-.05c-.02-.02-.04-.05-.06-.05-.04.01-.08.03-.12.05.02.02.04.06.06.06h0ZM187.93,175.52s.03-.04.06-.05l-.11-.06-.06.06s.08.04.12.05h0ZM188.66,176.14l-.06-.06s-.04.08-.05.12c0,.01.04.04.05.06l.06-.11ZM189.11,183.28c-.1-.13-.14-.25-.22-.27-.21-.04-.24.1-.21.25.03.09.08.18.13.26l.29-.25ZM189.21,164.39s-.08-.04-.12-.05c-.01,0-.04.04-.06.05l.11.06.06-.06ZM193.14,177.9c.11-.12.21-.19.21-.21-.04-.08-.1-.16-.17-.21-.02-.01-.15.08-.15.12.02.11.07.21.13.31h0ZM193.53,176.68c0-.17,0-.34,0-.51,0-.03-.07-.04-.11-.06v.63s.11-.04.11-.07h0ZM194.1,172.41s.08-.03.12-.05l-.06-.06-.11.06s.04.05.06.05h0ZM196.83,169.42s-.08-.04-.12-.05c-.01,0-.04.03-.06.05l.11.06.06-.06ZM197.32,175.97l-.06-.06s-.04.08-.05.12c0,.01.04.04.05.06l.06-.11ZM199.74,179.78l-.06-.06s-.04.08-.05.12c0,.01.03.04.05.06l.06-.11ZM199.77,168.59c.02.08.06.15.1.21.09-.04.17-.08.25-.14.02-.02,0-.11,0-.21l-.09-.17c-.06.06-.15.14-.18.18-.03.04-.08.09-.08.13h0ZM200.03,169.66c.09,0,.17,0,.26-.02-.04-.06-.06-.13-.08-.13-.08.01-.16.03-.23.05.02.04.04.11.07.11h0ZM200.45,165.62l-.08-.1-.08.08s.07.05.11.08l.05-.05ZM200.71,173.8c.07.03.14.03.23.03v-.13c-.09,0-.17,0-.25,0v.11ZM200.96,181.57l-.06-.11s-.05.04-.05.06c.01.04.03.08.05.12l.06-.06ZM201.38,182.97s.08,0,.12-.03c-.02-.02-.04-.05-.06-.05-.04.01-.08.03-.12.05.02.02.04.05.06.05v-.03ZM201.41,185.08s.06-.04.06-.04c-.01-.04-.03-.08-.05-.11l-.06.06.06.11v-.02ZM202.19,163.7s.07.05.1.08l.06-.05-.08-.1-.08.08ZM203.95,167.65s.03.08.05.12l.06-.06-.06-.11s-.06.04-.05.06ZM204.67,180.38s.11-.04.11-.04c0-.08-.01-.17-.03-.25-.07.04-.13.07-.13.09,0,.08.03.16.05.23v-.03ZM205.11,187.94l-.06-.06s-.04.07-.05.11c0,.02.04.04.05.06l.06-.11ZM205.13,167.85s.04.05.06.05c.04-.01.08-.03.12-.05l-.06-.06-.11.06ZM205.81,180.02l-.06-.11s-.05.04-.05.06c.01.04.03.08.05.12l.06-.06ZM205.83,166.47l.11.06.05-.07s-.08-.04-.12-.05c-.01,0-.04.04-.05.06ZM206.51,185.86l-.06-.06s-.04.08-.05.12c0,.01.04.04.05.06l.06-.11ZM206.73,183.05l-.1-.19s-.08.09-.08.13c.02.07.04.15.08.21l.1-.15ZM206.98,187.3s.04-.04.08-.03l-.11-.06-.06.06s.08.04.12.05l-.02-.03ZM207.11,167.07s-.05.04-.05.06c.01.04.03.08.05.11l.06-.06-.06-.11h0ZM207.78,186.96l-.11-.29c-.04.07-.07.14-.08.22.01.1.04.2.08.3l.11-.23ZM207.64,188.54s.06-.05.08-.03c-.01-.04-.03-.08-.05-.12l-.06.06.06.11-.02-.03ZM209,194.05s.09-.01.14-.03l-.06-.06-.11.06s.04.05.06.05l-.02-.03ZM209.46,161.96l.11.06.06-.06s-.07-.04-.11-.06c-.02,0-.04.04-.06.06ZM209.48,160.73l.06.11s.05-.04.05-.06c-.01-.04-.03-.08-.05-.11l-.06.06ZM210.76,189.41s.09-.09.1-.11c-.01-.08-.03-.16-.07-.23-.04.07-.1.11-.1.15.02.08.04.15.08.22l-.02-.03Z"/>
    </g>
    <g class="st0">
      <path class="st1" d="M180.88,196.27c-.06.15-.13.3-.22.44-.05.11-.15.19-.26.22-.11.04-.23.03-.34-.03-.13-.07-.24-.19-.38-.14-.27.11-.39-.15-.64-.2-.25-.05-.32.2-.55.2-.8.03-1.6.02-2.39-.05-.39-.07-.78-.12-1.17-.14-.11-.01-.27-.06-.35,0-.58.44-.86-.09-1.23-.35-.15-.11-.08-.33-.25-.43-.55-.34-.58-.86-.58-1.45.05-.74-.21-1.47-.73-2.01-.25-.2-.36-.52-.32-.84.02-.46-.05-.92-.21-1.35-.17-.76-.61-1.42-1.25-1.87-.14-.1-.33-.1-.47,0-.05.03-.08.09-.13.12-.15.11-.23.4-.47.34-.19-.04-.27-.23-.35-.44-.04-.13-.14-.23-.27-.27-.13-.04-.27-.01-.37.08-.23.18-.54.08-.75.36-.28.36-.47.33-.84.06-.11-.09-.22-.2-.32-.31-.22-.23-.45-.27-.67-.02-.12.13-.3.16-.43.26-.18.15-.43.16-.62.02-.39-.29-.92-.33-1.35-.1-.3.13-.65.07-.89-.14-.34-.27-.83-.27-1.17,0-.23.23-.6.25-.86.05-.15-.12-.34-.05-.51-.05h-2.13c-.42,0-.83.02-1.25,0-.36-.09-.72-.15-1.08-.19-.47.04-.94.16-1.37.36-.14.06-.31.14-.33.25-.09.47-.51.74-.65,1.17-.02.08-.1.12-.13.22-.09.31.29.6.15.79-.15.19-.45.25-.54.57-.13.56-.35,1.1-.65,1.6-.17.23.14.47.21.7.03.12.21.21.1.37-.07.09-.17.22-.25.22-.77-.04-.67.64-.74,1.02-.09.54-.54.8-.77,1.2-.23.26-.59.38-.93.29-.26-.07-.54.05-.66.3-.08.15-.22.24-.39.25s-.32-.07-.41-.21c-.13-.17-.16-.52-.39-.5-.23.02-.46.25-.66.3-.3.06-.38.43-.64.38-.27-.05-.39-.33-.59-.51-.12-.12-.28-.19-.46-.19s-.34.07-.46.19c-.07.06-.12.13-.19.19-.26.22-.43.23-.67.01-.32-.29-.46-.72-.81-1.01-.08-.06-.04-.29.08-.47.36-.52.53-1.14.85-1.68.13-.22-.03-.56.29-.68-.2-.92.54-1.49.82-2.24.06-.15.18-.31.22-.44.13-.45-.17-.99.33-1.38.4-.31.33-.89.6-1.25.17-.22.05-.47.22-.63.21-.2.11-.45.1-.67-.02-.24.09-.46.28-.61.29-.24.45-.59.45-.97,0-.08.01-.17.06-.23.29-.37.39-.85.29-1.3-.02-.29.1-.58.33-.76.32-.29.71-.56.57-1.09.32-.51.44-1.12.35-1.72,0-.19.07-.24.25-.35.37-.24.77-.57.65-1.13.3-.45.43-1,.34-1.54,0-.18.08-.34.22-.44.36-.36.61-.81.72-1.31.2-.5.3-1.02.31-1.55-.01-.18.13-.26.23-.35.56-.5.86-1.22.82-1.97,0-.51.2-1.01.55-1.38.44-.51.69-1.16.68-1.83.05-.5.25-.98.58-1.37.11-.17.32-.23.34-.48.03-.44.38-.81.34-1.27-.04-.4.1-.8.38-1.09.21-.26.34-.58.39-.91.13-.56.57-1.03.5-1.66,0-.09.11-.19.17-.28.47-.8.84-1.67,1.08-2.57.17-.61.32-.68.99-.68h.39c.39.06.78,0,1.13-.18.35.31.78.17,1.17.17.43.03.86-.01,1.27-.13.39-.11.8-.07,1.17.1.49.13,1,.14,1.49.03.48.03.97.09,1.44.2.21,0,.43.2.33.41-.13.27.31.43.07.68-.11.12.04.13.1.13.19-.02.29.16.45.21.3.09.34.35.11.58-.2.17-.23.47-.07.68.13.21.22.45.26.7.05.42.4.68.7.95.26.2.39.51.36.84-.02.73.16,1.46.51,2.1.19.28.32.58.39.91.07.29.28.53.57.62.14.03.26.12.32.25.06.13.04.29-.04.41-.52.58-.06.99.18,1.43.07.13.23.19.19.37-.09.39.22.57.43.8.17.18.46.32.13.63-.09.08-.02.29.07.47.42.8.75,1.65,1,2.52.05.21.13.59.48.65.41.07.42.37.38.66-.12.77.35,1.41.43,2.14.01.14.07.27.17.37.19.18.3.42.32.67.06.35.13.8.7.8.27,0,.31.21.22.55-.09.33-.09.68,0,1.01.14.3.24.62.29.95,0,.13.14.24.19.36.09.21.49.17.51.49,0,.23-.02.47,0,.7.02.23.23.34.38.47.18.12.23.36.11.54-.17.21-.03.32,0,.51.07.48.42.86.47,1.32.03.31.34.41.56.54.45.27.49.27.31.74-.09.19-.1.4-.04.59.35.66.37,1.47.93,2.01.17.16.12.32.12.49-.02.3.02.56.38.62.14.02.19.13.27.2.3.27.32.28.05.61-.18.16-.21.42-.07.61.39.64.51,1.44,1.2,1.9.13.08.2.2.09.36-.23.34-.21.79.06,1.11.22.29.1.5,0,.69ZM144.01,196.32c-.08-.02-.16-.02-.23,0-.09.02-.09.09,0,.11.07.02.13.02.2.02.12-.06.12-.11.04-.13ZM148.97,190.24s.06-.04.05-.06c-.01-.04-.03-.08-.05-.12l-.07.06.06.11h0ZM150.92,183.13s.06-.04.06-.06c-.01-.04-.03-.08-.06-.12l-.06.06.06.11ZM150.98,183.73l-.06-.06s-.04.08-.06.12c0,.01.04.04.06.06l.06-.12ZM154.15,185.41c.11,0,.08-.14.06-.23-.02-.09.06-.25-.12-.23-.1.02-.06.14-.06.23,0,.09-.06.25.11.23h0ZM154.12,173.35s-.06.04-.06.06c.01.04.03.08.06.12l.06-.06-.06-.11h0ZM154.89,176.79l-.06-.06s-.04.08-.05.12c0,.01.04.04.05.06l.06-.12ZM167.16,181.52c.54-.06.54-.13.59-.64.01-.27-.13-.52-.36-.65-.19-.15-.29-.36-.17-.53.11-.18,0-.26,0-.4-.02-.64-.69-1.06-.56-1.73,0-.04-.06-.1-.1-.13-.49-.34-.73-.94-.62-1.53-.04-.27-.13-.53-.26-.77-.18-.49-.43-.98-.57-1.45-.11-.47-.34-.89-.68-1.23-.21-.19-.38-.34-.09-.64.1-.19.08-.41-.05-.58-.18-.28-.3-.59-.36-.91-.07-.33-.25-.63-.51-.85-.25-.17-.36-.47-.3-.77.06-.43,0-.86-.2-1.25-.21-.4-.08-.91-.45-1.24-.16-.12-.26-.32-.26-.52,0-.2-.17-.35-.41-.35-.21-.03-.41.11-.45.32-.08.53-.46.97-.51,1.47,0,.57-.2,1.12-.56,1.56-.04.05,0,.17,0,.26-.03.29.02.57.16.82.13.18-.02.34-.27.38-.14.02-.39-.07-.39.08,0,.21-.23.27-.21.45.02.34-.1.67-.32.93-.22.29-.22.68,0,.96.09.11.13.25.13.39,0,.21.01.39-.3.39s-.42.3-.6.54-.15.52-.3.77c-.3.5-.26.53.02,1.14.21.46.16.59-.31.74-.33.08-.59.35-.66.69-.06.3-.17.58-.32.84-.26.38-.26.47.03.89.21.29.09.4-.09.57-.06.06-.11.16-.19.18-.58.18-.67.63-.65,1.15.04.15-.09.36.09.48.25.22.53.4.85.52.4.13.82.13,1.22,0,.38-.19.83-.16,1.17.09.19.11.42.11.62.02.43-.12.86-.5,1.33-.08.49-.1,1.06.24,1.49-.27.17-.2.29-.02.43.08.65.49.76.48,1.4.04.39-.27.63-.33.89-.02.2.25.51.04.7.28.2-.02.39-.11.53-.25.11-.13.27-.21.44-.22h0ZM156.02,178.04s.03.08.06.12l.06-.06-.06-.11s-.06.04-.06.06ZM156.19,162.76s.05.07.07.1h.08s-.03-.09-.05-.14c-.03-.05-.08-.03-.11.04ZM156.5,163.26c.03-.22.04-.36-.08-.39-.16-.04-.08.11-.08.16,0,.11-.08.28.1.34.02-.04.04-.08.05-.12h0ZM156.52,163.75s-.03-.14-.06-.14c-.11-.02-.13.06-.11.15,0,.05.03.14.06.14.1.02.12-.06.11-.15ZM156.64,177.3s-.08.03-.12.06c.02.02.04.06.06.06.04-.01.08-.03.12-.06-.02-.02-.04-.06-.06-.06ZM156.7,183.76s-.04-.06-.06-.06c-.04.01-.08.03-.12.06l.07.06.11-.06ZM156.82,165.58c-.23-.02-.07.2-.14.31.07.1-.08.32.12.32.14-.04.24-.16.25-.31,0-.15-.09-.27-.23-.32h0ZM156.97,166.78s-.06.08-.06.11c.05.1.15.06.23.06.03,0,.05-.07.07-.11-.06-.1-.15-.07-.24-.06ZM157.23,162.77l.11.06.06-.06s-.08-.04-.12-.06c-.01,0-.04.04-.06.06ZM157.38,183.25l-.06-.11s-.06.04-.06.06c.01.04.03.08.06.12l.06-.06ZM157.58,171.13c.07.04.15.07.23.08.04,0,.09-.05.13-.08l-.2-.1-.17.1ZM158.57,188.11s.06-.04.06-.05c-.01-.04-.03-.08-.06-.12-.02.02-.06.04-.06.06.01.04.03.08.06.12h0ZM159.28,160.73s-.06.04-.06.06c.02.04.03.08.06.12l.06-.06-.06-.11h0ZM161.09,164.85s-.08.03-.12.05l.06.06.12-.06s-.04-.06-.06-.06h0ZM162.19,185.74l-.06-.11s-.06.04-.06.06c.01.04.03.08.06.12l.06-.06ZM162.33,165.03s-.08.03-.12.05c.02.02.04.06.06.06.04-.01.08-.03.12-.06-.02-.02-.04-.05-.06-.05h0ZM163.01,163.57s-.06.04-.06.06c.01.04.03.08.06.12l.06-.06-.06-.12h0ZM164.11,169.12s-.08.03-.12.05c.02.02.04.06.06.06.04-.01.08-.03.12-.06-.02-.02-.04-.06-.06-.06h0ZM164.08,185.09s.06-.04.05-.04c-.01-.04-.03-.08-.05-.12-.02.02-.06.04-.06.06.01.04.03.08.06.12h0ZM164.26,164.29s-.04.08-.06.12c0,.01.03.04.06.06l.06-.11-.06-.06h0ZM164.82,184.87c.1,0,.07-.13.05-.22s.06-.25-.12-.23c-.1.02-.07.14-.06.23,0,.09-.06.25.11.23h0ZM164.84,186.23l-.06-.06s-.04.08-.06.12c0,.01.04.04.06.06l.06-.11ZM165.45,170.63s.03.04.05.06l.07-.12-.07-.06s-.04.08-.05.12ZM166.01,165.56c-.1.04-.06.15-.06.24,0,.03.07.05.1.07.11-.06.06-.15.06-.23,0-.02-.08-.06-.11-.06h0ZM166.75,182.96s.06-.04.05-.04c-.01-.04-.03-.08-.06-.12-.02.02-.06.04-.06.06.01.04.03.08.06.12h0ZM166.69,173.6s.03.08.06.12c.02-.02.06-.04.06-.06-.01-.04-.03-.08-.06-.12-.02,0-.06.03-.06.06ZM166.75,177.09s-.06.04-.06.07c.01.04.03.08.06.12l.06-.06-.06-.12h0ZM167.22,174.36s.04.04.06.06l.06-.11-.06-.06s-.04.08-.06.12ZM168.07,187.13c0-.08.04-.17-.07-.23-.03.02-.11.04-.11.07,0,.09-.04.19.06.23.02.01.11-.04.11-.06h0ZM167.96,179.25s-.04.04-.07.07l.11.06.06-.06s-.08-.04-.12-.06h0ZM167.89,182.52s.04.06.06.06c.04-.01.08-.03.12-.06l-.06-.06-.11.06ZM167.99,178.51s-.06.04-.07.07c.01.04.03.08.06.12l.06-.06-.06-.11h0ZM168.04,180.76s-.03-.07-.06-.1c-.02.02-.06.04-.06.06.01.04.03.08.06.12.02-.02.06-.04.06-.06h0ZM168.71,173.17s.07-.1.07-.13c.03-.21-.17-.27-.26-.4-.03.05-.08.09-.08.14-.03.21.17.27.27.39h0ZM169.31,178.39c.03-.09,0-.18-.08-.23-.03.05-.08.09-.08.14.02.08.05.15.08.22l.08-.12ZM169.29,180.05l-.06-.11s-.06.04-.06.06c.01.04.03.08.06.12l.06-.06ZM169.47,170.4l-.06-.06s-.04.08-.06.12c0,.01.04.04.06.06l.06-.11ZM170.48,178.68s.06-.04.04-.05c-.01-.04-.03-.08-.05-.12l-.06.06.06.11h0ZM173.55,177.92c.02-.11-.06-.13-.15-.11-.05,0-.14.03-.14.06-.02.12.06.12.15.12.06-.03.14-.04.14-.06ZM178.92,190.61s-.09.03-.14.05c-.05.03-.04.08.03.11.02,0,.07-.05.1-.08v-.08Z"/>
      <path class="st1" d="M216.36,196.79c-.36.12-.73.21-1.11.26-.2.06-.41,0-.54-.16-.23-.27-.64-.31-.92-.09-.63.48-1.19.02-1.78-.02-.09,0-.2-.09-.23-.06-.41.33-.87.13-1.32.16-.45.03-.92,0-1.38,0-.11,0-.26,0-.32-.06-.41-.35-.77-.75-1.08-1.19-.19-.31-.4-.59-.64-.86-.14-.13-.27-.29-.38-.45-.18-.36-.26-.78-.82-.78-.23,0-.3-.3-.15-.63.12-.25.15-.32-.17-.37-.37-.06-.62-.32-.6-.59-.04-.61-.31-1.18-.75-1.59-.68-.86-1.3-1.76-1.87-2.69-.32-.61-.74-1.17-1.22-1.67-.4-.39-.77-.82-1.1-1.27-.11-.18-.19-.38-.25-.58-.05-.12-.11-.34-.18-.34-.45-.07-.6-.29-.52-.73.04-.23-.15-.32-.34-.41-.14-.06-.33-.22-.33-.32,0-.48-.2-.93-.55-1.25-.4-.63-.85-1.23-1.35-1.79-.33-.3-.32-.31-.77-.1l-.36.17-.36.17c-.35.17-.15.72-.5.82-.3.06-.57.22-.77.45-.08.1-.11.22-.22.34-.11.11-.24.28-.37.29-.26,0-.48.19-.51.45-.02.12-.18.22-.29.31-.39.29-.74.63-1.04,1.03-.32.37-.67.72-1.03,1.05-.11.1-.21.2-.3.31-.26.28-.28.71-.03,1.01q.34.52-.06,1.07s-.03-.09-.05-.13c0-.01-.07.03-.11.03l.08.1h.08c-.06.42,0,.84.17,1.23.05.11.05.23,0,.34-.26.59-.26,1.26,0,1.86.02.13-.01.27-.09.39-.21.42-.46.84-.08,1.3.07.79.03,1.59-.13,2.37-.13.36.12.74-.17,1.06-.01.01.01.09.04.12.54.47.19.9-.1,1.3-.14.2-.34.44-.6.09-.84-.08-1.68,0-2.49.25-.17.09-.37.1-.54.02-.36-.21-.78-.31-1.2-.28-.34-.02-.4.11-.37.39.01.12.07.31-.17.31-.16,0-.34.07-.36-.22,0-.11-.22-.25-.36-.29-.57-.15-1.07-.35-1.02-1.09-.02-.16-.09-.31-.21-.42-.19-.21-.12-.37-.04-.6.08-.24.1-.5.07-.75-.02-.25.36-.43.03-.75-.15-.14-.02-.55-.02-.84.05-.29.04-.58-.02-.86-.22-.45-.16-.99.16-1.37.16-.25.12-.58-.08-.79-.27-.26-.34-.67-.16-1,.17-.45.17-.94,0-1.39-.09-.2-.07-.43.06-.61.16-.32.43-.69.04-1.05-.05-.51,0-1.02.11-1.51.1-.21.12-.44.05-.66-.17-.77-.23-1.57-.16-2.36.23-.49.29-1.04.14-1.57-.1-.4-.15-.82-.14-1.23.04-.58.12-1.16.16-1.75.08-.26-.02-.54-.23-.7-.19-.13-.16-.33-.04-.52.26-.39-.06-.89.26-1.28.05-.06-.08-.3-.16-.43-.23-.34.44-.66,0-.98.02-.36-.04-.72-.16-1.06-.06-.19-.03-.39.07-.56.52-.54.27-1.03-.09-1.48-.19-.24-.18-.35.01-.56.23-.45.26-.98.07-1.45-.15-.28-.09-.62.13-.84.11-.13.15-.3.12-.47-.22-.68-.22-1.42,0-2.1.04-.14.04-.29,0-.43-.19-.83-.25-1.68-.17-2.53.2-.44.25-.93.15-1.4-.02-.26-.14-.51-.17-.79-.07-.5.22-.97.7-1.13.47-.19.95-.63,1.51-.19.45.03.9-.01,1.34-.12.32-.11.67-.1.98.04.45.17.95.16,1.4-.02.42-.16.9-.07,1.23.23.23.13.36.39.31.65-.02.14.02.29,0,.43-.09.4.09.82.43,1.04.09.06.23.15.23.23.02.14-.04.43-.08.43-.47.05-.37.44-.47.7-.17.45-.17.45.23.71.4.26.4.26.12.66-.13.14-.23.3-.28.49-.04.36-.09.75.31,1,.23.15.27.31.04.54-.64.66-.62.66-.19,1.46.1.18.29.35.03.65-.3.39-.36.91-.14,1.35.16.32.14.71-.07,1-.09.21-.19.32,0,.57.16.21-.11.63.2.86-.12.27-.22.54-.31.83-.07.19-.08.39-.03.58.16.42.21.87.15,1.32.06.45,0,.9-.14,1.32-.13.27.14.56.34.79.06.06.14.08.22.07.17-.08.41-.15.47-.29.3-.73,1.05-.99,1.56-1.49.49-.59,1.04-1.11,1.66-1.56.32-.18.48-.61.75-.88,1.48-1.49,2.97-2.98,4.47-4.47.06-.06.14-.08.22-.06v.02c.03.09.06.17.1.25l.08-.15-.1-.17c.24-.31.5-.61.78-.88l1.91-1.9s-.01-.07,0-.08c.98-1.04,1.95-2.08,2.94-3.11.36-.37.52-.93,1.09-1.09.19-.7.79-.97,1.32-1.33.07-.05.13-.11.18-.18.24-.36.62-.4,1-.51.36-.14.76-.14,1.12.01.13.05.27.06.41.05h2.08c.06,0,.13.03.17,0,.5-.25,1.09-.19,1.53.15.32.16.58-.12.82-.26.5-.3.62-.32,1.01.03.13.14.3.24.49.29.19.04.35.18.4.38s-.01.39-.17.52c-.22.21-.46.39-.72.55-.26.18-.33.52-.65.69-.3.16-.53.43-.62.76-.57.42-1.1.89-1.6,1.39-.17.13-.35.2-.42.43-.06.13-.16.24-.29.31-.75.43-1.12,1.23-1.76,1.77-.49.42-.98.81-1.45,1.29s-.9,1.01-1.34,1.52c.06.34-.31.24-.44.4-.35.45-.84.77-1.21,1.21-.42.41-.86.8-1.32,1.17-.16.15-.23.37-.38.53-.15.16-.08.25,0,.43.18.39.07.51-.36.47-.08-.01-.16-.03-.23-.05-.41-.11-.64.08-.56.47.12.61.12.62-.42.47-.31-.1-.46,0-.44.37.02.42,0,.77-.51.92-.1.02-.19.1-.2.21s.03.21.12.26c.04.03.03.11.06.15.47.47.63,1.16,1.15,1.61.44.4.83.85,1.17,1.33.13.18.07.51.21.68.14.17.45.18.62.33.1.08.07.31.14.45.16.31.12.8.67.8.06,0,.18.13.18.2,0,.5.21.98.56,1.33.22.43.47.85.75,1.24.21.22.35.5.56.72.29.33.54.69.75,1.08.25.49.57.95.96,1.34.11.1.15.28.25.41.23.29.33.67.77.81.32.1.5.43.43.75-.03.18.09.19.23.26.37.17.8.33.64.91-.08.31.23.44.41.6.11.09.28.07.3.31,0,.1.09.16.03.32-.05.12.14.38.28.52.24.26.43.57.56.9.13.24.29.46.47.67.16.22.33.44.49.66.29.4.6.82.86,1.21s.49.79.75,1.17c.11.17.24.31.36.47.12.15.23.3.33.47.33.61.26.84-.36,1.1ZM182.66,174.61l-.11-.4s-.11.1-.11.15c0,.11.02.21.05.31l.16-.06ZM182.53,158.24s-.04.08-.05.12c0,.01.04.04.05.06l.06-.11-.06-.06h0ZM183.83,178.6s-.08-.04-.12-.05c-.01,0-.04.04-.06.05l.11.06.06-.06ZM183.75,174.17s-.05.08-.06.13c0,.01.04.04.05.06l.06-.11-.06-.06h0ZM184.26,173.77l-.19-.26c-.09.1-.17.21-.23.33-.01.03.08.11.12.16l.3-.24ZM184.23,177.43s.11-.04.11-.06c0-.08-.01-.17-.03-.25-.06.04-.13.07-.13.09,0,.08.03.16.05.23h0ZM184.26,168.64s-.06.04-.05.06c.01.04.03.08.05.12.02-.02.05-.04.05-.06-.01-.04-.03-.08-.05-.12h0ZM184.26,169.32s-.06.04-.05.07c.01.04.03.08.05.12l.06-.06-.06-.11h0ZM184.26,169.84s-.06.04-.05.07c.01.04.03.08.05.11.02-.02.05-.04.05-.06-.01-.04-.03-.08-.05-.12h0ZM184.41,187.3s.08-.02.11-.04l-.06-.06-.11.06s.04.05.06.05h0ZM185.08,171.75c-.07.02-.14.05-.21.09.04.03.09.08.13.08.08-.01.16-.03.23-.07-.07-.04-.11-.1-.15-.1h0ZM184.96,184.21s.06-.04.05-.04c-.01-.04-.03-.08-.05-.12l-.06.06.06.11h0ZM185.5,187.99s.07-.11.05-.13c-.04-.07-.09-.14-.15-.21l-.19.12.29.23h0ZM185.39,180.5s.04.06.06.06c.04-.01.08-.03.12-.06l-.06-.06-.11.06ZM185.67,196.13c.02-.11.04-.21.05-.3.01-.08.01-.17,0-.25,0-.03-.1-.06-.11-.07s-.06.04-.06.06v.34l.11.23h0ZM185.88,157.62l-.06-.06s-.04.07-.05.11c0,.01.03.04.05.06l.06-.11ZM186.17,182.83c.04-.07.06-.14.08-.21,0-.04-.05-.09-.08-.13l-.1.19.1.15h0ZM186.17,171.75s-.06.04-.06.07c.01.04.03.08.06.12.02-.02.05-.04.05-.06-.01-.04-.03-.08-.05-.12h0ZM186.69,166.21s-.06.04-.05.06c.01.04.03.08.05.12.02-.02.05-.04.05-.06-.01-.04-.03-.08-.05-.11h0ZM186.75,169.27l-.06-.11s-.05.04-.05.06c.01.04.03.08.05.12l.06-.06ZM186.89,177.95s.04-.04.06-.05l-.11-.06-.06.06s.08.04.12.05h0ZM187.35,177.43s.08-.03.12-.05c-.02-.02-.04-.05-.06-.05-.04.01-.08.03-.12.05.02.02.04.06.06.06h0ZM187.93,175.52s.03-.04.06-.05l-.11-.06-.06.06s.08.04.12.05h0ZM188.66,176.14l-.06-.06s-.04.08-.05.12c0,.01.04.04.05.06l.06-.11ZM189.11,183.28c-.1-.13-.14-.25-.22-.27-.21-.04-.24.1-.21.25.03.09.08.18.13.26l.29-.25ZM189.21,164.39s-.08-.04-.12-.05c-.01,0-.04.04-.06.05l.11.06.06-.06ZM193.14,177.9c.11-.12.21-.19.21-.21-.04-.08-.1-.16-.17-.21-.02-.01-.15.08-.15.12.02.11.07.21.13.31h0ZM193.53,176.68c0-.17,0-.34,0-.51,0-.03-.07-.04-.11-.06v.63s.11-.04.11-.07h0ZM194.1,172.41s.08-.03.12-.05l-.06-.06-.11.06s.04.05.06.05h0ZM196.83,169.42s-.08-.04-.12-.05c-.01,0-.04.03-.06.05l.11.06.06-.06ZM197.32,175.97l-.06-.06s-.04.08-.05.12c0,.01.04.04.05.06l.06-.11ZM199.74,179.78l-.06-.06s-.04.08-.05.12c0,.01.03.04.05.06l.06-.11ZM199.77,168.59c.02.08.06.15.1.21.09-.04.17-.08.25-.14.02-.02,0-.11,0-.21l-.09-.17c-.06.06-.15.14-.18.18-.03.04-.08.09-.08.13h0ZM200.03,169.66c.09,0,.17,0,.26-.02-.04-.06-.06-.13-.08-.13-.08.01-.16.03-.23.05.02.04.04.11.07.11h0ZM200.45,165.62l-.08-.1-.08.08s.07.05.11.08l.05-.05ZM200.71,173.8c.07.03.14.03.23.03v-.13c-.09,0-.17,0-.25,0v.11ZM200.96,181.57l-.06-.11s-.05.04-.05.06c.01.04.03.08.05.12l.06-.06ZM201.38,182.97s.08,0,.12-.03c-.02-.02-.04-.05-.06-.05-.04.01-.08.03-.12.05.02.02.04.05.06.05v-.03ZM201.41,185.08s.06-.04.06-.04c-.01-.04-.03-.08-.05-.11l-.06.06.06.11v-.02ZM202.19,163.7s.07.05.1.08l.06-.05-.08-.1-.08.08ZM203.95,167.65s.03.08.05.12l.06-.06-.06-.11s-.06.04-.05.06ZM204.67,180.38s.11-.04.11-.04c0-.08-.01-.17-.03-.25-.07.04-.13.07-.13.09,0,.08.03.16.05.23v-.03ZM205.11,187.94l-.06-.06s-.04.07-.05.11c0,.02.04.04.05.06l.06-.11ZM205.13,167.85s.04.05.06.05c.04-.01.08-.03.12-.05l-.06-.06-.11.06ZM205.81,180.02l-.06-.11s-.05.04-.05.06c.01.04.03.08.05.12l.06-.06ZM205.83,166.47l.11.06.05-.07s-.08-.04-.12-.05c-.01,0-.04.04-.05.06ZM206.51,185.86l-.06-.06s-.04.08-.05.12c0,.01.04.04.05.06l.06-.11ZM206.73,183.05l-.1-.19s-.08.09-.08.13c.02.07.04.15.08.21l.1-.15ZM206.98,187.3s.04-.04.08-.03l-.11-.06-.06.06s.08.04.12.05l-.02-.03ZM207.11,167.07s-.05.04-.05.06c.01.04.03.08.05.11l.06-.06-.06-.11h0ZM207.78,186.96l-.11-.29c-.04.07-.07.14-.08.22.01.1.04.2.08.3l.11-.23ZM207.64,188.54s.06-.05.08-.03c-.01-.04-.03-.08-.05-.12l-.06.06.06.11-.02-.03ZM209,194.05s.09-.01.14-.03l-.06-.06-.11.06s.04.05.06.05l-.02-.03ZM209.46,161.96l.11.06.06-.06s-.07-.04-.11-.06c-.02,0-.04.04-.06.06ZM209.48,160.73l.06.11s.05-.04.05-.06c-.01-.04-.03-.08-.05-.11l-.06.06ZM210.76,189.41s.09-.09.1-.11c-.01-.08-.03-.16-.07-.23-.04.07-.1.11-.1.15.02.08.04.15.08.22l-.02-.03Z"/>
    </g>
  </g>
</svg>