<svg version="1.1" id="Layer_1" xmlns="http://www.w3.org/2000/svg" xmlns:xlink="http://www.w3.org/1999/xlink" x="0px" y="0px"
	 width="557" height="118" viewBox="0 0 557 118" xml:space="preserve">
<path fill="#FAFAFA" opacity="1.000000" stroke="none" 
	d="
M193.950989,42.973587 
	C196.218842,48.695263 198.333237,54.051449 200.473206,59.397396 
	C201.933365,63.045078 203.429276,66.678452 206.027527,70.057297 
	C206.027527,58.344681 206.030136,46.632069 206.026535,34.919456 
	C206.024399,27.954355 206.080109,20.988241 205.975250,14.024609 
	C205.925842,10.743833 206.490952,8.937572 210.545609,9.881225 
	C213.227158,10.505313 216.187683,10.167039 218.998520,9.945304 
	C223.503922,9.589891 225.133148,11.842599 226.462250,15.942335 
	C230.691925,28.989134 235.484955,41.853306 240.463913,55.929031 
	C242.718475,49.485107 244.702988,43.909092 246.620346,38.310066 
	C249.438492,30.080587 252.052322,21.775341 255.136612,13.647881 
	C255.724777,12.098016 257.978790,10.432072 259.658356,10.195071 
	C263.567627,9.643431 267.595154,9.893236 271.574829,9.890040 
	C274.206635,9.887927 275.113495,10.944241 275.075836,13.889013 
	C274.858582,30.882740 274.956238,47.880482 274.943573,64.876862 
	C274.942810,65.871590 274.783051,66.883125 274.912262,67.858345 
	C275.873138,75.110039 272.810486,78.083908 265.982819,75.785637 
	C264.316559,75.224747 262.442993,72.249611 262.411316,70.355270 
	C262.207397,58.168270 262.501740,45.973232 262.584961,33.780506 
	C262.591064,32.881992 262.223907,31.980938 261.853790,30.260988 
	C258.425781,39.941322 255.259689,48.814980 252.143692,57.706196 
	C250.271133,63.049381 248.734756,68.532036 246.486206,73.708267 
	C245.831451,75.215500 243.068405,76.960014 241.576569,76.717880 
	C238.141418,76.160332 234.458984,75.050026 233.097473,71.026176 
	C228.614212,57.776104 224.146149,44.520882 218.579132,31.340538 
	C218.579132,36.068184 218.600876,40.795956 218.574493,45.523453 
	C218.523560,54.649548 218.578506,63.780979 218.202606,72.894234 
	C218.157898,73.978508 215.694336,75.853355 214.362335,75.844254 
	C207.624344,75.798256 200.789215,75.784462 194.216400,74.546989 
	C192.291611,74.184608 190.346863,70.008270 189.764069,67.289970 
	C188.696854,62.312210 186.897552,60.490631 181.410339,61.438305 
	C176.710251,62.250034 171.692856,61.121971 166.812241,61.015404 
	C159.841125,60.863194 159.168579,61.349613 157.519730,68.032425 
	C155.730621,75.283768 153.570236,76.274841 145.876144,75.734947 
	C144.748184,75.655792 142.602249,72.695312 142.930344,71.812202 
	C150.061127,52.619358 157.595688,33.576538 164.727875,14.384191 
	C166.030212,10.879653 167.944519,9.804119 171.242584,10.010400 
	C172.072769,10.062325 172.915619,10.138890 173.737701,10.055926 
	C178.908096,9.534122 182.283615,10.466305 183.980988,16.642380 
	C186.422363,25.525492 190.454971,33.971283 193.950989,42.973587 
M172.007355,27.750551 
	C169.574356,34.821312 167.141373,41.892071 164.593201,49.297546 
	C170.824615,49.297546 176.800446,49.297546 183.156494,49.297546 
	C179.893143,40.374317 176.896484,32.180344 173.543274,23.011393 
	C172.829895,25.100098 172.511719,26.031677 172.007355,27.750551 
z"/>
<path fill="#FAFAFA" opacity="1.000000" stroke="none" 
	d="
M469.262207,74.940781 
	C464.136688,75.556252 463.653564,73.163185 463.704742,69.107056 
	C463.949310,49.720356 463.814453,30.328869 463.814453,10.773361 
	C465.100159,10.477305 466.030273,10.062427 466.951324,10.081642 
	C477.875366,10.309532 488.881348,9.858320 499.699646,11.069427 
	C512.709106,12.525839 516.512573,22.554462 513.656494,33.957664 
	C513.001831,36.571484 509.674988,38.516022 507.498291,40.854126 
	C512.830383,44.627522 517.066772,48.993946 517.140625,56.732590 
	C517.238953,67.051369 510.463623,73.732361 501.153320,74.443703 
	C490.728607,75.240196 480.210754,74.817261 469.262207,74.940781 
M495.814270,64.014542 
	C496.296997,63.893967 496.780426,63.776150 497.262360,63.652401 
	C501.784363,62.491196 504.252594,59.328701 503.694733,54.928249 
	C503.128937,50.464832 500.499847,47.589111 495.194366,47.832325 
	C490.616974,48.042156 485.995209,47.520000 481.405853,47.158623 
	C477.675171,46.864857 476.253113,48.110970 477.062622,52.020397 
	C477.631165,54.766132 478.108856,57.801617 477.507965,60.454193 
	C476.635529,64.305656 478.602539,64.215088 481.151184,64.147438 
	C485.743927,64.025520 490.337738,63.944580 495.814270,64.014542 
M492.657288,21.076151 
	C487.641541,21.076151 482.625824,21.076151 477.267303,21.076151 
	C477.267303,26.239601 477.267303,31.128799 477.267303,36.899456 
	C482.549927,36.899456 487.802216,37.138382 493.022949,36.834789 
	C498.668732,36.506474 501.188141,33.840473 501.246979,28.962280 
	C501.298431,24.698412 498.629669,22.089159 492.657288,21.076151 
z"/>
<path fill="#FAFAFA" opacity="1.000000" stroke="none" 
	d="
M95.084473,74.875648 
	C92.841179,74.843704 91.069496,74.843704 89.000214,74.843704 
	C89.000214,59.590790 89.046936,45.015884 88.975197,30.441563 
	C88.949654,25.252817 88.489952,20.064631 88.520340,14.877898 
	C88.534294,12.495837 88.826660,9.654058 92.387306,9.925629 
	C103.714012,10.789517 115.164978,8.065631 126.428970,11.570807 
	C135.887589,14.514178 143.763046,22.746248 145.703979,32.696812 
	C147.376022,41.268837 147.465942,49.526249 143.930695,57.574554 
	C140.622269,65.106491 134.953918,70.443512 127.166435,72.890038 
	C116.867844,76.125473 106.217056,76.150146 95.084473,74.875648 
M102.067253,62.384781 
	C108.271515,62.336262 114.547684,62.856113 120.660225,62.082691 
	C127.037476,61.275772 130.683594,56.454731 131.999268,50.460049 
	C132.890930,46.397324 133.120758,42.040421 132.766357,37.890259 
	C132.307892,32.521755 130.261978,27.297136 125.481636,24.430555 
	C118.377090,20.170238 110.311287,21.454212 102.000771,21.212196 
	C102.000771,35.023308 102.000771,48.217857 102.067253,62.384781 
z"/>
<path fill="#FAFAFA" opacity="1.000000" stroke="none" 
	d="
M419.670074,10.429044 
	C427.079102,8.542686 434.056549,8.917780 440.977203,10.975920 
	C453.858032,14.806554 459.663300,24.834114 460.844452,36.118763 
	C461.608582,43.418995 461.940887,51.037739 458.182892,58.184589 
	C453.592346,66.914795 446.838104,72.499130 437.322815,74.765289 
	C421.421021,78.552460 407.987366,71.822311 401.584442,58.740051 
	C393.599823,42.426064 397.912201,17.149065 419.670074,10.429044 
M423.782532,63.080902 
	C432.097198,65.874084 443.726837,62.398026 445.885010,52.881279 
	C447.085327,47.588268 447.973114,41.997467 447.613770,36.633862 
	C447.141357,29.581648 440.169250,21.157768 432.879730,20.904140 
	C422.011536,20.525997 416.078827,22.350767 412.220367,35.483532 
	C409.722900,43.984074 411.861877,58.485802 423.782532,63.080902 
z"/>
<path fill="#FBFBFB" opacity="1.000000" stroke="none" 
	d="
M357.942627,73.796883 
	C350.714813,77.631660 342.291351,74.419502 337.995667,67.034309 
	C333.781952,59.790058 328.769257,53.010525 324.329803,46.360477 
	C310.368713,51.874054 314.729706,64.128860 313.742340,74.360069 
	C310.388245,74.851173 307.326111,75.813820 304.399139,75.503120 
	C303.012299,75.355919 300.812531,72.783745 300.800446,71.295410 
	C300.642487,51.882526 300.751984,32.466095 301.046997,13.054396 
	C301.064301,11.916975 303.171051,9.935020 304.427673,9.831671 
	C314.289032,9.020620 315.422668,10.686450 314.269379,22.153738 
	C313.841919,26.403929 314.039551,30.717337 313.961670,35.002087 
	C313.941895,36.091393 313.958710,37.181362 313.958710,38.871212 
	C322.465057,30.442118 330.587250,22.679092 338.341064,14.564037 
	C341.274414,11.494016 343.631378,8.552951 348.566711,9.865816 
	C350.128571,10.281288 352.090881,9.191335 354.908539,8.556217 
	C355.291534,8.819467 356.709167,9.793843 358.550385,11.059352 
	C352.849121,16.720932 347.458344,22.074438 342.067108,27.427473 
	C341.594360,27.896875 341.117584,28.362253 340.644318,28.831116 
	C333.272308,36.134579 333.289001,36.123367 338.996185,44.511021 
	C345.324127,53.810928 351.617737,63.134228 357.936768,72.962280 
	C357.947235,73.477226 357.942627,73.796883 357.942627,73.796883 
z"/>
<path fill="#FAFAFA" opacity="1.000000" stroke="none" 
	d="
M75.765503,39.261875 
	C79.537621,49.433445 83.376022,59.194183 87.101753,68.997742 
	C87.762115,70.735344 87.953331,72.651230 88.435150,74.817337 
	C84.466576,74.817337 81.167007,74.823509 77.867470,74.815933 
	C72.559021,74.803741 73.307091,69.704277 72.605232,67.113831 
	C71.296272,62.282570 69.782982,60.750778 64.560898,61.589745 
	C59.872986,62.342892 54.806923,61.732681 50.059986,60.877998 
	C44.089272,59.802975 41.886021,62.706203 40.427990,67.734978 
	C37.978119,76.184631 33.527527,78.037079 24.663853,74.221413 
	C32.796211,52.962875 40.938278,31.678965 49.160007,10.186809 
	C51.204948,10.186809 53.011715,10.218878 54.817043,10.181523 
	C65.322853,9.964149 65.055061,10.043720 68.218849,19.997463 
	C70.266167,26.438633 73.236603,32.586395 75.765503,39.261875 
M54.419174,30.705185 
	C52.038235,36.728619 49.657291,42.752056 47.084209,49.261581 
	C53.538803,49.261581 59.660526,49.261581 66.042358,49.261581 
	C62.763992,40.329361 59.754330,32.129242 56.366329,22.898312 
	C55.533546,25.863106 54.970062,27.869164 54.419174,30.705185 
z"/>
<path fill="#F9F9F9" opacity="1.000000" stroke="none" 
	d="
M358.370056,73.714432 
	C357.942627,73.796883 357.947235,73.477226 357.951111,73.317429 
	C358.349060,68.641815 359.052643,64.127907 359.080475,59.609833 
	C359.172424,44.687302 358.975922,29.763149 359.017670,14.839976 
	C359.022919,12.966222 359.790100,11.094602 360.038361,9.971985 
	C364.294952,9.971985 367.993500,9.971985 372.279694,9.971985 
	C372.279694,27.824989 372.279694,45.032822 372.279694,62.992805 
	C380.354797,62.992805 388.498077,62.978329 396.641296,63.001476 
	C399.136566,63.008568 402.392975,61.860477 402.723907,65.985336 
	C403.308533,73.272003 402.430450,74.637573 397.271210,74.696465 
	C385.693726,74.828621 374.114990,74.895271 362.537048,74.867340 
	C361.289520,74.864334 360.043945,74.063004 358.370056,73.714432 
z"/>
<path fill="#FAFAFA" opacity="1.000000" stroke="none" 
	d="
M521.635986,10.489633 
	C532.893494,10.100164 532.891541,10.100169 532.916443,20.990091 
	C532.943909,33.017876 532.956543,45.045742 533.014404,57.073387 
	C533.038635,62.113453 533.165466,67.152992 533.239990,72.192863 
	C533.293213,75.794632 530.893860,76.173729 528.185059,75.874733 
	C525.593262,75.588654 523.026489,75.076340 520.036560,74.597458 
	C520.036560,60.251789 520.045227,45.657921 520.031921,31.064074 
	C520.027222,25.948557 519.861511,20.830294 519.994995,15.719178 
	C520.039307,14.023071 520.789185,12.345386 521.635986,10.489633 
z"/>
</svg>