<svg width="198" height="163" viewBox="21 44 148 84" fill="none" xmlns="http://www.w3.org/2000/svg">
<defs>
<mask id="a-cutout">
<rect x="0" y="0" width="250" height="200" fill="white"/>
<path d="M58 62C58.66 62 59.32 62 60 62C61.43 65.32 62.74 68.62 64 72C64.58 73.42 65.16 74.85 65.75 76.31C67 80 67 80 67 85C67.66 85 68.32 85 69 85C70.84 89.45 70.84 89.45 71 94C66.78 94.89 63.85 95.03 59.63 94.81C58.52 94.81 57.41 94.8 56.27 94.79C50.27 94.63 50.27 94.63 48 94C48 92.68 48 91.36 48 90C48.66 90 49.32 90 50 90C50 89.01 50 88.02 50 87C50 86.01 50 85.02 50 84C50.66 84 51.32 84 52 84C52 82.35 52 80.7 52 79C52.97 76.65 53.97 74.32 55 72C55.54 70.19 56.06 68.38 56.56 66.56C57.04 65.06 57.51 63.55 58 62Z" fill="black"/>
</mask>
</defs>
<g mask="url(#a-cutout)">
<path d="M51 47.0001C54.91 46.1701 54.91 46.1701 59.5 46.1901C61.02 46.1601 62.53 46.1301 64.09 46.1101C66.03 46.5501 66.03 46.5501 68 47.0001C70.03 50.4301 70.03 50.4301 71 54.0001C71 54.6601 71 55.3201 71 56.0001C71.66 56.0001 72.32 56.0001 73 56.0001C73.34 58.3301 73.67 60.6701 74 63.0001C74.66 63.3301 75.32 63.6601 76 64.0001C76.82 66.1101 76.82 66.1101 77.56 68.7501C77.81 69.6101 78.06 70.4701 78.32 71.3601C79 74.0001 79 74.0001 79.46 76.8301C79.64 77.5401 79.82 78.2601 80 79.0001C80.66 79.0001 81.32 79.0001 82 79.0001C82.33 82.0001 82.67 85.0001 83 88.0001C83.66 88.0001 84.32 88.0001 85 88.0001C85.73 89.9801 86.38 91.9801 87 94.0001C87.96 96.4601 88.94 98.9201 89.94 101.38C90.46 102.69 90.99 104.01 91.54 105.36C92.64 108.1 93.75 110.83 94.88 113.56C96.03 117.1 96.68 119.33 96 123C90.98 124.37 86.07 124.03 81 123C78.69 119.44 78.69 119.44 78 115C77.57 111.27 77.57 111.27 76 108C70.7 106.42 65.12 106.89 59.63 106.94C58.09 106.89 56.56 106.83 54.98 106.78C50.74 106.78 47.09 106.89 43 108C40.88 110.43 40.2 112.24 39.49 115.36C39.33 116.23 39.17 117.1 39 118C38.24 120.77 38.24 120.77 37 123C31.65 123.96 28.25 124.31 23 123C23 117.13 24.24 112.98 26.82 107.68C28.89 102.98 30.31 98.0501 31.85 93.1601C33 90.0001 33 90.0001 35 88.0001C35.86 85.1301 36.53 82.2501 37.22 79.3401C37.48 78.5701 37.73 77.7901 38 77.0001C38.66 77.0001 39.32 77.0001 40 77.0001C40.37 74.6701 40.69 72.3401 41 70.0001C41.62 68.3201 42.3 66.6501 43 65.0001C43.59 63.5601 43.59 63.5601 44.18 62.1001C44.6 61.1001 45.01 60.0901 45.44 59.0601C45.85 58.0601 46.26 57.0601 46.68 56.0401C47.34 54.5301 47.34 54.5301 48 53.0001C48.37 51.9001 48.75 50.8001 49.13 49.6701C49.75 48.7901 50.36 47.9101 51 47.0001Z" fill="#23201F"/>
<path d="M51 47.0001C54.91 46.1701 54.91 46.1701 59.5 46.1901C61.02 46.1601 62.53 46.1301 64.09 46.1101C66.03 46.5501 66.03 46.5501 68 47.0001C70.03 50.4301 70.03 50.4301 71 54.0001C71 54.6601 71 55.3201 71 56.0001C71.66 56.0001 72.32 56.0001 73 56.0001C73.13 60.0601 73.13 60.0601 72 64.0001C68 63.8801 68 63.8801 64 63.0001C63.67 63.6601 63.34 64.3201 63 65.0001C62.67 64.6701 62.34 64.3401 62 64.0001C61.96 62.0001 61.96 60.0001 62 58.0001C61.67 58.3301 61.34 58.6601 61 59.0001C61.63 66.3701 63.7 73.4001 67 80.0001C67 81.6501 67 83.3001 67 85.0001C67.66 85.0001 68.32 85.0001 69 85.0001C70.84 89.4501 70.84 89.4501 71 94.0001C66.78 94.8901 63.85 95.0301 59.63 94.8101C57.97 94.8001 57.97 94.8001 56.27 94.7901C50.27 94.6301 50.27 94.6301 48 94.0001C48 92.6801 48 91.3601 48 90.0001C48.66 90.0001 49.32 90.0001 50 90.0001C50 89.0101 50 88.0201 50 87.0001C50 86.0101 50 85.0201 50 84.0001C50.66 84.0001 51.32 84.0001 52 84.0001C51.59 80.2901 51.59 80.2901 50 77.0001C47.55 78.1201 47.55 78.1201 45 80.0001C43.64 79.7201 43.64 79.7201 42.25 79.4401C41.51 79.2901 40.77 79.1501 40 79.0001C39.67 80.3201 39.34 81.6401 39 83.0001C38.34 82.6701 37.68 82.3401 37 82.0001C37.25 79.4401 37.25 79.4401 38 77.0001C38.66 77.0001 39.32 77.0001 40 77.0001C40.37 74.6701 40.69 72.3401 41 70.0001C41.62 68.3201 42.3 66.6501 43 65.0001C43.39 64.0401 43.78 63.0801 44.18 62.1001C44.6 61.1001 45.01 60.0901 45.44 59.0601C45.85 58.0601 46.26 57.0601 46.68 56.0401C47.34 54.5301 47.34 54.5301 48 53.0001C48.37 51.9001 48.75 50.8001 49.13 49.6701C50.06 48.3501 50.06 48.3501 51 47.0001Z" fill="#22201F"/>
<path d="M35 88C35.99 88 36.98 88 38 88C38 89.65 38 91.3 38 93C37.01 93.99 36.02 94.98 35 96C34.01 96 33.02 96 32 96C32.75 92.56 32.75 92.56 34 89C34.33 88.67 34.66 88.34 35 88Z" fill="#1E1D1B"/>
</g>
<path d="M99.0001 45.9999C101.91 45.7699 101.91 45.7699 105.5 45.8099C107.28 45.8199 107.28 45.8199 109.09 45.8299C110.53 45.9199 110.53 45.9199 112 45.9999C112.33 46.3299 112.66 46.6599 113 46.9999C113.09 49.5099 113.11 52.0199 113.1 54.5399C113.09 56.0699 113.09 57.5999 113.09 59.1699C113.08 60.7899 113.07 62.3999 113.06 64.0599C113.06 65.6799 113.05 67.2999 113.05 68.9599C113.04 72.9799 113.02 76.9899 113 80.9999C114.28 79.8899 115.56 78.7799 116.83 77.6599C117.54 77.0399 118.25 76.4299 118.99 75.7899C122.4 72.7599 125.54 69.4799 128.69 66.1899C129.45 65.4699 130.21 64.7399 131 63.9999C131.66 63.9999 132.32 63.9999 133 63.9999C133.66 62.6799 134.32 61.3599 135 59.9999C136.12 58.5499 137.29 57.1299 138.5 55.7499C139.41 54.6899 139.41 54.6899 140.34 53.6099C140.89 53.0799 141.44 52.5499 142 51.9999C142.66 51.9999 143.32 51.9999 144 51.9999C144.66 50.6799 145.32 49.3599 146 47.9999C146.66 47.9999 147.32 47.9999 148 47.9999C148 47.3399 148 46.6799 148 45.9999C151.04 45.7699 153.96 45.6799 157 45.6899C157.86 45.6699 158.72 45.6599 159.6 45.6399C162.06 45.6399 162.06 45.6399 166 45.9999C166 46.9899 166 47.9799 166 48.9999C164.09 50.7499 162.16 52.4899 160.17 54.1499C157.72 56.1799 157.72 56.1799 154.63 59.4399C153.33 60.7099 153.33 60.7099 152 61.9999C151.34 61.9999 150.68 61.9999 150 61.9999C149.34 63.3199 148.68 64.6399 148 65.9999C146 68.2499 146 68.2499 144 69.9999C143.34 69.9999 142.68 69.9999 142 69.9999C141.67 71.3199 141.34 72.6399 141 73.9999C140.01 74.6599 139.02 75.3199 138 75.9999C137.79 78.7999 137.79 78.7999 139 81.9999C140.37 83.9599 141.76 85.9199 143.25 87.7899C145.15 90.1899 146.89 92.6699 148.63 95.1899C150.49 97.8799 152.35 100.42 154.44 102.94C154.95 103.62 155.47 104.3 156 105C156 105.99 156 106.98 156 108C156.66 108 157.32 108 158 108C159.4 110.3 160.72 112.64 162 115C162.87 116.33 162.87 116.33 163.75 117.69C165 120 165 120 165 124C161.79 124.53 161.79 124.53 157.63 124.5C156.26 124.51 154.89 124.52 153.48 124.53C152.33 124.36 151.18 124.18 150 124C149.34 122.68 148.68 121.36 148 120C147.34 120 146.68 120 146 120C145.33 118.33 144.67 116.67 144 115C143.34 115 142.68 115 142 115C141.08 113.15 140.16 111.31 139.28 109.44C136.97 105.02 134.09 100.91 131 96.9999C130.01 96.5099 130.01 96.5099 129 95.9999C128.53 95.0099 128.05 94.0199 127.56 92.9999C127.05 92.0099 126.53 91.0199 126 89.9999C124.52 89.5099 124.52 89.5099 123 88.9999C122.67 89.9899 122.34 90.9799 122 91.9999C121.34 91.9999 120.68 91.9999 120 91.9999C119.34 93.3199 118.68 94.6399 118 95.9999C116.68 96.9899 115.36 97.9799 114 98.9999C113.55 101.58 113.55 101.58 113.81 104.47C113.84 105.54 113.87 106.6 113.9 107.7C113.93 108.81 113.97 109.92 114 111.06C114.01 115.13 113.99 119.04 113 123C110.28 125.1 110.28 125.1 106.94 125.63C103.59 125.6 103.59 125.6 101 125C101 124.34 101 123.68 101 123C100.34 123 99.6801 123 99.0001 123C97.5201 120.04 97.8701 117.4 97.8701 114.1C97.8701 111.92 97.8701 111.92 97.8601 109.69C97.8601 108.11 97.8701 106.53 97.8701 104.91C97.8701 103.29 97.8701 101.68 97.8601 100.02C97.8601 96.5999 97.8601 93.1899 97.8701 89.7699C97.8801 85.3799 97.8701 80.9999 97.8701 76.6099C97.8601 72.4399 97.8601 68.2699 97.8701 64.0899C97.8601 61.7199 97.8601 61.7199 97.8601 59.3099C97.8601 57.8499 97.8701 56.3999 97.8701 54.8999C97.8701 53.6099 97.8701 52.3199 97.8701 50.9999C98.0001 47.9999 98.0001 47.9999 99.0001 45.9999Z" fill="#23201F"/>
<path d="M98 65C98.66 65 99.32 65 100 65C100.07 67.61 100 70.23 99.87 72.84C99.81 74.46 99.74 76.08 99.67 77.75C99.56 80.35 99.44 82.95 99.31 85.54C99.19 88.04 99.09 90.53 99 93.03C98.93 94.53 98.86 96.03 98.78 97.58C98.85 98.71 98.93 99.84 99 101C99.99 101.33 100.98 101.66 102 102C101.67 102.66 101.34 103.32 101 104C100.85 108.31 101.03 112.18 101.75 116.44C101.83 117.61 101.92 118.79 102 120C100.02 120.49 100.02 120.49 98 121C97.51 118.99 97.51 118.99 97.51 115.97C97.51 114.85 97.5 113.73 97.5 112.58C97.51 111.35 97.52 110.12 97.54 108.85C97.54 106.98 97.54 106.98 97.54 105.08C97.55 102.43 97.56 99.79 97.59 97.15C97.62 93.08 97.63 89.02 97.63 84.96C97.64 82.4 97.65 79.84 97.66 77.29C97.67 76.06 97.67 74.83 97.67 73.56C97.68 72.44 97.7 71.31 97.71 70.16C97.72 69.16 97.72 68.16 97.73 67.13C97.82 66.43 97.91 65.73 98 65Z" fill="#1E1D1B"/>
<path d="M163 120C163 120.99 163 121.98 163 123C163.66 123.33 164.32 123.66 165 124C162.52 124.05 160.04 124.09 157.56 124.13C156.18 124.15 154.8 124.17 153.38 124.2C152.26 124.13 151.15 124.07 150 124C149.67 123.34 149.34 122.68 149 122C153.4 119.36 158.01 119.63 163 120Z" fill="#1E1C1D"/>
<path d="M145 92C149.6 96.19 152.91 100.62 156 106C154.68 106.33 153.36 106.66 152 107C151.67 106.01 151.34 105.02 151 104C150.34 103.34 149.68 102.68 149 102C148.67 100.68 148.34 99.36 148 98C146.68 97.67 145.36 97.34 144 97C144.33 96.34 144.66 95.68 145 95C145 94.01 145 93.02 145 92Z" fill="#1C1B1A"/>
<path d="M96 118C96.33 118.99 96.66 119.98 97 121C97.66 121 98.32 121 99 121C99 121.66 99 122.32 99 123C99.66 123.33 100.32 123.66 101 124C100.34 124 99.68 124 99 124C98.67 125.32 98.34 126.64 98 128C97.01 127.34 96.02 126.68 95 126C95 125.34 95 124.68 95 124C92.33 123.96 89.67 123.96 87 124C87 123.67 87 123.34 87 123C88.49 123.08 89.97 123.17 91.5 123.25C92.98 123.17 94.47 123.08 96 123C96 121.35 96 119.7 96 118Z" fill="#090708"/>
<path d="M141 72C141.66 72.99 142.32 73.98 143 75C143 75.66 143 76.32 143 77C141.33 78.67 139.67 80.33 138 82C137.25 79.13 137.25 79.13 137 76C138.32 75.34 139.64 74.68 141 74C141 73.34 141 72.68 141 72Z" fill="#050503"/>
</svg>
